<?xml version="1.0" encoding="UTF-8"?>
<svg id="Layer_1" data-name="Layer 1" xmlns="http://www.w3.org/2000/svg" viewBox="0 0 332.16 45.32">
  <defs>
    <style>
      .cls-1 {
        fill: #fff;
      }
    </style>
  </defs>
  <g>
    <path class="cls-1" d="M56.33,35.66l9.6-27.6h5.36l9.6,27.6h-5.96l-1.68-5.24h-9.24l-1.68,5.24h-6ZM65.49,25.7h6.24l-3.12-9.72-3.12,9.72Z"/>
    <path class="cls-1" d="M100.12,26.98c0,5.2-2.64,9.04-7.8,9.04-2.08,0-3.48-.4-4.4-1.16v8.4h-5.12V15.66h5.12v1.32c.96-1.08,2.4-1.68,4.44-1.68,4.64,0,7.76,3.24,7.76,8.96v2.72ZM95.01,26.66v-2.08c0-3.2-1-4.96-3.52-4.96s-3.56,1.6-3.56,4.52v2.52c0,2.88.68,5.04,3.56,5.04s3.52-2.16,3.52-5.04Z"/>
    <path class="cls-1" d="M118.96,32.62c-1.4,2.44-3.72,3.4-7.32,3.4-6,0-8.88-3.88-8.88-9.04v-2.72c0-6.04,3.04-8.96,8.24-8.96,5.64,0,8.24,3.28,8.24,9.36v2.28h-11.4c.04,2.76.92,4.76,3.76,4.76,2.12,0,2.8-.64,3.56-1.72l3.8,2.64ZM107.85,23.3h6.28c-.12-2.6-1.16-3.68-3.08-3.68-2.04,0-3,1.4-3.2,3.68Z"/>
    <path class="cls-1" d="M133.53,35.66l-3.88-6.08-3.88,6.08h-5.64l6.56-10.24-6.04-9.76h5.64l3.36,5.72,3.36-5.72h5.64l-6.04,9.76,6.6,10.24h-5.68Z"/>
    <path class="cls-1" d="M157.77,19.02h9.56v-10.96h5.6v27.6h-5.6v-11.92h-9.56v11.92h-5.6V8.06h5.6v10.96Z"/>
    <path class="cls-1" d="M194.28,26.82c0,5.48-2.6,9.2-8.64,9.2s-8.64-3.6-8.64-9.2v-2.4c0-6,3.16-9.12,8.64-9.12s8.64,3.12,8.64,9.12v2.4ZM189.2,26.66v-2.08c0-3.2-1.04-4.96-3.56-4.96s-3.56,1.76-3.56,4.96v2.08c0,2.88.72,5.04,3.56,5.04s3.56-2.16,3.56-5.04Z"/>
    <path class="cls-1" d="M208.64,21.3c-.88-1.04-1.76-1.6-3.92-1.6-1.32,0-2.52.4-2.52,1.56s1.08,1.64,3.2,1.96c4.92.76,7.4,2.64,7.4,6.6s-2.68,6.2-7.84,6.2c-4.08,0-6.56-1-8.28-3.32l3.92-2.8c.8,1.08,1.8,1.72,4.28,1.72,1.76,0,2.84-.6,2.84-1.64,0-1.24-.88-1.64-3.4-2.04-4.16-.68-7.2-2.44-7.2-6.48,0-3.8,2.72-6.16,7.72-6.16,3.28,0,6,.76,7.56,3.32l-3.76,2.68Z"/>
    <path class="cls-1" d="M233.56,26.98c0,5.2-2.64,9.04-7.8,9.04-2.08,0-3.48-.4-4.4-1.16v8.4h-5.12V15.66h5.12v1.32c.96-1.08,2.4-1.68,4.44-1.68,4.64,0,7.76,3.24,7.76,8.96v2.72ZM228.44,26.66v-2.08c0-3.2-1-4.96-3.52-4.96s-3.56,1.6-3.56,4.52v2.52c0,2.88.68,5.04,3.56,5.04s3.52-2.16,3.52-5.04Z"/>
    <path class="cls-1" d="M237.33,8.06h5.52v4.96h-5.52v-4.96ZM237.53,15.66h5.12v20h-5.12V15.66Z"/>
    <path class="cls-1" d="M245.85,15.66h2.56v-4.4h5.08v4.4h3.92v4.32h-3.92v8.36c0,2,.4,2.84,2.28,2.84h1.64v4.48h-2.16c-4.84,0-6.84-1.36-6.84-6.52v-9.16h-2.56v-4.32Z"/>
    <path class="cls-1" d="M266.96,23.66h3.96v-1.16c0-2.24-.68-2.96-3.56-2.96-1.96,0-2.92.28-3.76,1.6l-3.6-2.52c1.48-2.44,3.72-3.32,7.84-3.32,5.16,0,8.08,1.52,8.08,7.24v13.12h-5v-1.76c-.8,1.36-2,2.12-4.32,2.12-4.16,0-7.04-2.2-7.04-6.28s3.2-6.08,7.4-6.08ZM270.92,27.42h-3.36c-2.08,0-3,.68-3,2.24s1.16,2.24,2.92,2.24c2.32,0,3.44-1,3.44-3.72v-.76Z"/>
    <path class="cls-1" d="M280,8.06h5.12v20.04c0,2.16.64,3.16,2.8,3.16v4.4c-5.4,0-7.92-1.4-7.92-6.4V8.06Z"/>
    <path class="cls-1" d="M291.8,8.06h5.52v4.96h-5.52v-4.96ZM292,15.66h5.12v20h-5.12V15.66Z"/>
    <path class="cls-1" d="M300.32,15.66h2.56v-4.4h5.08v4.4h3.92v4.32h-3.92v8.36c0,2,.4,2.84,2.28,2.84h1.64v4.48h-2.16c-4.84,0-6.84-1.36-6.84-6.52v-9.16h-2.56v-4.32Z"/>
    <path class="cls-1" d="M318.56,15.66l4.44,12.8,4-12.8h5.16l-7,20.92c-1.8,5.36-3.56,6.68-9.16,6.68v-4.56c2.76,0,3.84-.44,4.68-2.76l-7.48-20.28h5.36Z"/>
  </g>
  <g id="Ct8Bgg">
    <g>
      <path class="cls-1" d="M19.66,35.57h-7.82l10.59-18.33,10.6,18.12c.02.17,0,.11-.12.12-2.3.3-5.04.02-7.4.08-.08,0-.28-.05-.17.08l13.46,9.66,6.17-6.84L22.48,0,0,38.47l6.17,6.84,13.5-9.75Z"/>
      <path class="cls-1" d="M19.66,35.57l-13.5,9.75-6.17-6.84L22.48,0l22.48,38.47-6.17,6.84-13.46-9.66c-.12-.13.09-.08.17-.08,2.37-.07,5.1.22,7.4-.08.12-.02.15.05.12-.12l-10.6-18.12-10.59,18.33h7.82Z"/>
    </g>
  </g>
</svg>