<?xml version="1.0" encoding="UTF-8"?>
<svg id="Layer_1" data-name="Layer 1" xmlns="http://www.w3.org/2000/svg" viewBox="0 0 270.15 47.66">
  <defs>
    <style>
      .cls-1 {
        fill: #fff;
      }
    </style>
  </defs>
  <g>
    <path class="cls-1" d="M56.99,11.66h9.76c1.07,0,2.13.12,3.2.36,1.07.24,2.02.64,2.86,1.2.84.56,1.52,1.29,2.04,2.2.52.91.78,2.04.78,3.4,0,1.57-.45,2.89-1.36,3.96-.91,1.07-2.11,1.8-3.6,2.2v.08c.91.11,1.75.34,2.52.7.77.36,1.44.83,2,1.42.56.59.99,1.28,1.3,2.08.31.8.46,1.69.46,2.68,0,1.36-.28,2.55-.84,3.56-.56,1.01-1.32,1.85-2.28,2.5-.96.65-2.09,1.15-3.38,1.48-1.29.33-2.67.5-4.14.5h-9.32V11.66ZM60.95,23.62h5.16c.75,0,1.46-.09,2.14-.26.68-.17,1.27-.44,1.78-.8.51-.36.91-.81,1.2-1.36.29-.55.44-1.21.44-1.98,0-1.52-.56-2.61-1.68-3.26-1.12-.65-2.63-.98-4.52-.98h-4.52v8.64ZM60.95,36.62h4.96c.83,0,1.66-.07,2.5-.22.84-.15,1.6-.41,2.28-.78.68-.37,1.23-.87,1.64-1.5.41-.63.62-1.42.62-2.38,0-1.68-.57-2.89-1.72-3.64-1.15-.75-2.8-1.12-4.96-1.12h-5.32v9.64Z"/>
    <path class="cls-1" d="M95.83,39.98c-.05-.48-.09-1.02-.12-1.62-.03-.6-.04-1.1-.04-1.5h-.08c-.48,1.01-1.29,1.87-2.42,2.58-1.13.71-2.39,1.06-3.78,1.06-1.23,0-2.29-.2-3.18-.6-.89-.4-1.63-.95-2.2-1.66-.57-.71-1-1.53-1.28-2.46-.28-.93-.42-1.93-.42-3v-11.76h3.76v10.48c0,.77.06,1.51.18,2.22s.34,1.33.66,1.86c.32.53.76.96,1.32,1.28.56.32,1.28.48,2.16.48,1.52,0,2.75-.57,3.68-1.7.93-1.13,1.4-2.65,1.4-4.54v-10.08h3.76v14.88c0,.51.01,1.16.04,1.96.03.8.07,1.51.12,2.12h-3.56Z"/>
    <path class="cls-1" d="M120.87,36.98c-.72,1.15-1.7,2.02-2.94,2.62-1.24.6-2.54.9-3.9.9-1.47,0-2.79-.26-3.96-.78-1.17-.52-2.17-1.23-3-2.14-.83-.91-1.47-1.97-1.92-3.2-.45-1.23-.68-2.53-.68-3.92s.23-2.69.68-3.9c.45-1.21,1.1-2.27,1.94-3.18.84-.91,1.85-1.61,3.02-2.12,1.17-.51,2.47-.76,3.88-.76,1.55,0,2.89.33,4.04.98,1.15.65,2.05,1.45,2.72,2.38h.08v-14.12h3.76v30.24h-3.64v-3h-.08ZM108.39,30.48c0,.88.13,1.73.4,2.55s.67,1.56,1.2,2.19c.53.64,1.19,1.15,1.96,1.54.77.39,1.68.58,2.72.58.96,0,1.83-.19,2.62-.56s1.46-.87,2.02-1.5c.56-.62.99-1.35,1.3-2.17.31-.82.46-1.69.46-2.59s-.15-1.77-.46-2.59c-.31-.82-.74-1.55-1.3-2.19-.56-.64-1.23-1.14-2.02-1.52s-1.66-.56-2.62-.56c-1.04,0-1.95.19-2.72.56-.77.37-1.43.88-1.96,1.52-.53.64-.93,1.37-1.2,2.19-.27.82-.4,1.68-.4,2.55Z"/>
    <path class="cls-1" d="M132.63,43.22c.83.93,1.86,1.68,3.1,2.24,1.24.56,2.51.84,3.82.84s2.31-.18,3.16-.54c.85-.36,1.54-.85,2.06-1.48s.89-1.37,1.12-2.22c.23-.85.34-1.77.34-2.76v-2.44h-.08c-.69,1.07-1.64,1.88-2.84,2.44-1.2.56-2.48.84-3.84.84-1.44,0-2.75-.25-3.94-.76-1.19-.51-2.19-1.2-3.02-2.08-.83-.88-1.47-1.91-1.92-3.1-.45-1.19-.68-2.46-.68-3.82s.23-2.64.68-3.84c.45-1.2,1.09-2.25,1.92-3.14.83-.89,1.83-1.6,3-2.12,1.17-.52,2.48-.78,3.92-.78,1.36,0,2.66.29,3.9.88,1.24.59,2.22,1.48,2.94,2.68h.08v-3.04h3.64v18c0,1.39-.17,2.71-.52,3.98-.35,1.27-.93,2.39-1.76,3.36-.83.97-1.91,1.75-3.24,2.34-1.33.59-2.99.88-4.96.88-1.65,0-3.31-.3-4.98-.9-1.67-.6-3.1-1.45-4.3-2.54l2.4-2.92ZM133.75,30.3c0,.88.14,1.72.42,2.52.28.8.69,1.51,1.24,2.12.55.61,1.21,1.11,1.99,1.48.78.37,1.66.56,2.65.56s1.85-.17,2.65-.52c.8-.35,1.48-.82,2.05-1.42.56-.6,1-1.31,1.3-2.12.31-.81.46-1.69.46-2.62s-.15-1.76-.46-2.56c-.31-.8-.75-1.51-1.32-2.12-.58-.61-1.26-1.1-2.05-1.46-.79-.36-1.67-.54-2.63-.54s-1.87.18-2.65.54c-.78.36-1.44.84-1.99,1.44-.55.6-.96,1.31-1.24,2.12-.28.81-.42,1.67-.42,2.58Z"/>
    <path class="cls-1" d="M174.15,30.34v.64c0,.21-.01.43-.04.64h-15.08c.03.79.21,1.54.54,2.24.33.7.78,1.31,1.34,1.83.56.52,1.21.92,1.94,1.21.73.29,1.51.44,2.34.44,1.28,0,2.39-.28,3.32-.84.93-.56,1.67-1.24,2.2-2.04l2.64,2.12c-1.01,1.34-2.21,2.33-3.58,2.97-1.37.63-2.9.95-4.58.95-1.44,0-2.77-.24-4-.72-1.23-.48-2.28-1.15-3.16-2.02-.88-.87-1.57-1.91-2.08-3.14-.51-1.23-.76-2.59-.76-4.08s.25-2.82.74-4.06c.49-1.24,1.18-2.3,2.06-3.18.88-.88,1.92-1.57,3.13-2.06,1.2-.49,2.5-.74,3.89-.74s2.65.23,3.79.68c1.14.45,2.1,1.11,2.89,1.96.79.85,1.4,1.89,1.82,3.1.43,1.21.64,2.58.64,4.1ZM170.31,28.82c-.03-.75-.15-1.45-.38-2.1-.23-.65-.56-1.22-1-1.7-.44-.48-.99-.86-1.64-1.14-.65-.28-1.42-.42-2.3-.42-.8,0-1.55.14-2.26.42-.71.28-1.32.66-1.84,1.14s-.95,1.05-1.28,1.7c-.33.65-.53,1.35-.58,2.1h11.28Z"/>
    <path class="cls-1" d="M188.63,24.1h-5.04v9.85c0,1.14.21,1.96.64,2.45.43.49,1.11.74,2.04.74.35,0,.72-.04,1.12-.11.4-.07.76-.18,1.08-.33l.12,3.08c-.45.16-.95.29-1.5.38-.55.09-1.11.14-1.7.14-1.79,0-3.15-.49-4.1-1.48-.95-.99-1.42-2.47-1.42-4.44v-10.28h-3.64v-3.08h3.64v-5.44h3.72v5.44h5.04v3.08Z"/>
    <path class="cls-1" d="M206.67,39.98h-3.96V11.66h3.96v28.32Z"/>
    <path class="cls-1" d="M216.75,21.02c.05.48.09,1.02.12,1.62.03.6.04,1.1.04,1.5h.12c.24-.51.57-.98.98-1.42.41-.44.88-.83,1.42-1.16.53-.33,1.12-.59,1.76-.78.64-.19,1.31-.28,2-.28,1.23,0,2.28.21,3.16.62.88.41,1.61.97,2.2,1.66.59.69,1.02,1.51,1.3,2.44.28.93.42,1.93.42,3v11.76h-3.76v-10.52c0-.77-.06-1.51-.18-2.2-.12-.69-.34-1.31-.66-1.84-.32-.53-.76-.96-1.32-1.28-.56-.32-1.28-.48-2.16-.48-1.49,0-2.71.57-3.66,1.7-.95,1.13-1.42,2.65-1.42,4.54v10.08h-3.76v-14.88c0-.51-.01-1.16-.04-1.96-.03-.8-.07-1.51-.12-2.12h3.56Z"/>
    <path class="cls-1" d="M240.03,21.02c.05.48.09,1.02.12,1.62.03.6.04,1.1.04,1.5h.12c.24-.51.57-.98.98-1.42.41-.44.89-.83,1.42-1.16.53-.33,1.12-.59,1.76-.78.64-.19,1.31-.28,2-.28,1.23,0,2.28.21,3.16.62.88.41,1.61.97,2.2,1.66.59.69,1.02,1.51,1.3,2.44.28.93.42,1.93.42,3v11.76h-3.76v-10.52c0-.77-.06-1.51-.18-2.2-.12-.69-.34-1.31-.66-1.84-.32-.53-.76-.96-1.32-1.28-.56-.32-1.28-.48-2.16-.48-1.49,0-2.71.57-3.66,1.7-.95,1.13-1.42,2.65-1.42,4.54v10.08h-3.76v-14.88c0-.51-.01-1.16-.04-1.96-.03-.8-.07-1.51-.12-2.12h3.56Z"/>
  </g>
  <g id="fbksYa">
    <path class="cls-1" d="M24.02,5.86c7.04-.75,13.73,3.4,15.54,10.33,1.77,6.8-1.6,11.2-5.57,16.19-2.58,3.25-5.39,6.36-8.1,9.5-2.28-2.42-4.63-4.81-6.8-7.31-4.01-4.63-7.89-9.18-7.4-15.77s5.88-12.25,12.33-12.94ZM33.3,19.06h-14.38c-.14-.14-.44-.65-.44-.78v-4.53c-.35-.41-1.22-.41-1.57,0v10.63c.22.37,1.3.38,1.49.1l.24-2.2,14.22-.08.42.29c-.02.7-.21,1.42.18,2.08.35.25,1.41-.02,1.41-.36v-7.67c0-.49-1.57-.49-1.57,0v2.53ZM22.6,17.78c1.58-1.61-.8-4.38-2.65-2.74s.85,4.58,2.65,2.74ZM32.08,18.19c.06-.91.04-1.61-.87-2s-5.85-.42-6.75-.13-1.36,1.18-1.27,2.13h8.89Z"/>
  </g>
</svg>