<?xml version="1.0" encoding="UTF-8"?>
<svg id="Layer_1" data-name="Layer 1" xmlns="http://www.w3.org/2000/svg" viewBox="0 0 303.49 47.66">
  <defs>
    <style>
      .cls-1 {
        fill: #fff;
      }
    </style>
  </defs>
  <g>
    <path class="cls-1" d="M72.34,36.96c-2.31,1.03-5.06,1.55-8.27,1.55-3.91,0-6.96-1.1-9.14-3.3s-3.27-5.27-3.27-9.22,1.1-7.11,3.3-9.27c2.2-2.16,5.33-3.25,9.4-3.25,2.6,0,5.18.31,7.75.92v3.88c-2.91-1.02-5.35-1.53-7.32-1.53-2.51,0-4.45.8-5.82,2.39-1.36,1.6-2.05,3.86-2.05,6.79s.73,5.12,2.2,6.74c1.47,1.61,3.5,2.42,6.12,2.42,2.34,0,4.71-.59,7.09-1.77v3.66Z"/>
    <path class="cls-1" d="M84.09,38.31c-2.76,0-4.96-.83-6.58-2.51-1.63-1.67-2.44-3.92-2.44-6.74s.82-5.11,2.46-6.77,3.86-2.48,6.68-2.48,5.06.83,6.69,2.48,2.46,3.9,2.46,6.74-.82,5.17-2.47,6.82-3.91,2.47-6.8,2.47ZM84.17,35.33c2.74,0,4.11-2.1,4.11-6.3,0-1.92-.36-3.44-1.09-4.56-.72-1.12-1.72-1.68-2.99-1.68s-2.25.56-2.97,1.68c-.72,1.12-1.09,2.65-1.09,4.59s.36,3.45,1.08,4.58,1.7,1.69,2.95,1.69Z"/>
    <path class="cls-1" d="M97.73,37.91v-17.69h4.58v3.34c1.4-2.49,3.38-3.74,5.96-3.74,1.33,0,2.43.33,3.29.98s1.39,1.57,1.58,2.76c1.65-2.49,3.65-3.74,5.99-3.74,3.23,0,4.85,1.78,4.85,5.35v12.75h-4.58v-11.18c0-2.09-.7-3.14-2.09-3.14s-2.82,1.03-4.17,3.09v11.23h-4.58v-11.18c0-2.11-.7-3.16-2.11-3.16s-2.79,1.04-4.14,3.11v11.23h-4.58Z"/>
    <path class="cls-1" d="M130.23,37.91v-14.71h-2.43v-2.98h2.43v-1.27c0-4.59,2.18-6.88,6.53-6.88,1.41,0,2.86.2,4.35.61v3.22c-1.35-.57-2.57-.85-3.64-.85-1.64,0-2.47,1.24-2.47,3.72v1.45h4.48v2.98h-4.48v14.71h-4.77Z"/>
    <path class="cls-1" d="M150.84,38.31c-2.76,0-4.96-.83-6.58-2.51-1.63-1.67-2.44-3.92-2.44-6.74s.82-5.11,2.46-6.77,3.86-2.48,6.68-2.48,5.06.83,6.69,2.48,2.46,3.9,2.46,6.74-.82,5.17-2.47,6.82-3.91,2.47-6.8,2.47ZM150.92,35.33c2.74,0,4.11-2.1,4.11-6.3,0-1.92-.36-3.44-1.09-4.56-.72-1.12-1.72-1.68-2.99-1.68s-2.25.56-2.97,1.68c-.72,1.12-1.09,2.65-1.09,4.59s.36,3.45,1.08,4.58,1.7,1.69,2.95,1.69Z"/>
    <path class="cls-1" d="M164.49,37.91v-17.69h4.77v3.34c1.24-2.49,3.12-3.74,5.64-3.74.3,0,.6.03.89.1v4.25c-.68-.25-1.31-.37-1.89-.37-1.9,0-3.45.96-4.64,2.88v11.23h-4.77Z"/>
    <path class="cls-1" d="M188.61,37.81c-1.14.33-2.04.5-2.69.5-4.14,0-6.2-1.93-6.2-5.8v-9.31h-1.98v-2.98h1.98v-2.98l4.77-.55v3.53h3.79v2.98h-3.79v8.69c0,2.17.89,3.25,2.66,3.25.41,0,.9-.08,1.47-.23v2.9Z"/>
    <path class="cls-1" d="M202.41,37.7v-4.09c2.57,1.07,4.76,1.61,6.59,1.61,1.28,0,2.29-.28,3.02-.85.74-.57,1.1-1.34,1.1-2.32,0-.77-.23-1.43-.69-1.96-.46-.53-1.34-1.16-2.63-1.89l-1.59-.89c-2.14-1.2-3.65-2.35-4.53-3.46s-1.32-2.39-1.32-3.86c0-1.97.72-3.54,2.17-4.74,1.44-1.19,3.35-1.79,5.73-1.79,1.9,0,4.04.27,6.43.82v3.82c-2.44-.91-4.37-1.37-5.79-1.37-1.1,0-1.97.24-2.63.73-.66.49-.99,1.13-.99,1.93,0,.66.23,1.23.69,1.72s1.33,1.1,2.61,1.82l1.71.95c2.3,1.29,3.88,2.48,4.75,3.56s1.31,2.41,1.31,3.96c0,2.21-.82,3.95-2.47,5.2s-3.91,1.89-6.8,1.89c-1.91,0-4.14-.27-6.67-.81Z"/>
    <path class="cls-1" d="M231.72,37.81c-1.14.33-2.04.5-2.69.5-4.14,0-6.2-1.93-6.2-5.8v-9.31h-1.98v-2.98h1.98v-2.98l4.77-.55v3.53h3.79v2.98h-3.79v8.69c0,2.17.89,3.25,2.66,3.25.41,0,.9-.08,1.47-.23v2.9Z"/>
    <path class="cls-1" d="M244.64,36.01c-1.59,1.54-3.29,2.3-5.11,2.3-1.55,0-2.8-.47-3.77-1.42s-1.45-2.17-1.45-3.67c0-1.96.78-3.46,2.34-4.52,1.56-1.06,3.8-1.59,6.71-1.59h1.27v-1.61c0-1.84-1.05-2.76-3.14-2.76-1.86,0-3.74.53-5.64,1.58v-3.29c2.16-.82,4.3-1.22,6.41-1.22,4.63,0,6.95,1.84,6.95,5.53v7.83c0,1.39.45,2.08,1.34,2.08.16,0,.37-.02.63-.06l.11,2.67c-1.01.3-1.9.45-2.67.45-1.96,0-3.21-.77-3.77-2.3h-.21ZM244.64,33.44v-3.59h-1.13c-3.08,0-4.62.97-4.62,2.9,0,.66.22,1.21.67,1.65.45.45,1,.67,1.65.67,1.12,0,2.26-.54,3.43-1.63Z"/>
    <path class="cls-1" d="M255.43,44.27l4.01-6.36-6.56-17.69h5.12l4.38,11.83,5.21-11.83h3.62l-10.92,24.06h-4.87Z"/>
    <path class="cls-1" d="M274.14,37.34v-3.5c2.36.99,4.38,1.48,6.06,1.48,1.96,0,2.93-.67,2.93-2,0-.86-.81-1.61-2.42-2.26l-1.61-.64c-1.75-.71-3-1.47-3.75-2.29-.75-.82-1.13-1.83-1.13-3.03,0-1.68.64-2.98,1.92-3.91s3.07-1.39,5.37-1.39c1.44,0,3.15.21,5.14.63v3.35c-1.91-.67-3.5-1-4.75-1-1.98,0-2.96.61-2.96,1.84,0,.81.73,1.49,2.19,2.05l1.39.53c2.07.78,3.51,1.58,4.33,2.38.81.81,1.22,1.84,1.22,3.11,0,1.67-.69,3.02-2.07,4.05-1.38,1.04-3.18,1.56-5.39,1.56s-4.28-.32-6.45-.97Z"/>
  </g>
  <g id="Jyrk0l.tif">
    <g>
      <path class="cls-1" d="M8.77,24.58v-.56c.4-1.63,1.8-1.59,3.17-1.31,1.04.21,1.96.71,2.79,1.35.77.6,1.54,1.55,2.51,1.8,2.48.63,3.23-1.11,4.98-2.24,2.22-1.44,5.13-1.42,7.33.05,1.61,1.07,2.32,2.63,4.59,2.26,1.21-.19,1.92-1.16,2.83-1.87,1.2-.94,2.88-1.65,4.44-1.5,1.42.14,2.03,1.95.98,2.95-.58.55-1.08.41-1.78.52-1.23.2-1.91,1.15-2.83,1.87-2.48,1.94-5.73,2.04-8.28.16-1.17-.87-1.89-2.02-3.51-2.09-1.95-.08-2.7,1.37-4.13,2.32-2.2,1.46-5.11,1.49-7.33.05-1.14-.74-2.08-2.09-3.45-2.31-.56-.09-.97,0-1.49-.3-.44-.26-.67-.68-.82-1.16Z"/>
      <path class="cls-1" d="M34.18,39.65h-1.28l-1.16-.23c-2.44-.4-3.54-3.32-6.08-3.19-2.2.11-3.45,2.86-5.69,3.19l-1.16.23h-1.28l-1.2-.23c-.89-.24-1.69-.7-2.41-1.26-.92-.72-1.6-1.66-2.83-1.87-.56-.09-.97,0-1.49-.3-.44-.26-.67-.68-.82-1.16.02-.18-.02-.38,0-.56.09-.74.82-1.39,1.56-1.45,1.56-.14,3.2.56,4.4,1.5.91.71,1.62,1.67,2.83,1.87,2.26.36,2.96-1.17,4.57-2.24,2.21-1.48,5.12-1.52,7.35-.07,1.75,1.14,2.53,2.89,5.02,2.23.97-.26,1.89-1.35,2.7-1.95,1.14-.84,2.85-1.52,4.29-1.32s1.93,1.97.91,2.94c-.63.6-1.24.39-2,.57-1.08.25-1.78,1.17-2.62,1.82-1.02.8-2.3,1.39-3.61,1.5Z"/>
      <path class="cls-1" d="M8.77,14.33v-.56c.4-1.63,1.8-1.59,3.17-1.31,1.04.21,1.96.71,2.79,1.35.77.6,1.54,1.55,2.51,1.8,2.48.63,3.23-1.11,4.98-2.24,2.24-1.45,5.14-1.41,7.35.07,1.26.84,2.13,2.22,3.77,2.3,2.03.1,2.78-1.41,4.28-2.38,1.03-.67,2.56-1.15,3.79-1.03,1.42.14,2.03,1.95.98,2.95-.58.55-1.08.41-1.78.52-1.22.2-1.92,1.15-2.83,1.87-2.52,1.97-5.78,2.03-8.34.1-1.15-.86-1.84-1.96-3.44-2.03-1.95-.08-2.7,1.37-4.13,2.32-2.2,1.46-5.11,1.49-7.33.05-1.14-.74-2.08-2.09-3.45-2.31-.56-.09-.97,0-1.49-.3-.44-.26-.67-.68-.82-1.16Z"/>
    </g>
  </g>
</svg>