<?xml version="1.0" encoding="UTF-8"?>
<svg id="Layer_1" data-name="Layer 1" xmlns="http://www.w3.org/2000/svg" viewBox="0 0 279.92 47.66">
  <defs>
    <style>
      .cls-1 {
        fill: #fff;
      }
    </style>
  </defs>
  <g>
    <path class="cls-1" d="M57.14,13.73v-1.47h10.18v1.47l-4.72.54h-.75l-4.71-.54ZM62.22,34.35v2.01h-5.08v-1.47l4.71-.54h.37ZM60.42,12.27h3.62c-.11,3.7-.11,7.45-.11,11.16v2.48c0,3.07,0,6.81.11,10.45h-3.62c.11-3.7.11-7.45.11-11.12v-1.82c0-3.78,0-7.52-.11-11.16ZM75.43,29.57l-.36,6.78h-12.85v-1.81h11.59l-2.02,1.81,1.44-6.78h2.2Z"/>
    <path class="cls-1" d="M82.53,30.01c0,3.15.92,4.24,2.86,4.24,1.81,0,3.68-.93,5.43-2.71h.79v1.87h-1.87l1.25-.57c-2.03,2.8-4.48,3.99-6.85,3.99-2.89,0-4.71-1.73-4.67-6.48l.11-9.51.78.71-3.34-.72v-1.27l5.31-.5.37.36-.18,5.04v5.56ZM90.91,36.65l-.49-4.21.11-11.6.78.71-3.33-.72v-1.27l5.23-.51.37.36-.11,5.04v10.83l-.95-.94,3.4.73v1.28l-5,.29Z"/>
    <path class="cls-1" d="M101.36,34.47l3.34.6v1.28h-7.21v-1.28l3.09-.6h.78ZM101.48,21.26l-3.75-.61v-1.38h8.04v1.38l-3.42.61h-.88ZM98.39,36.36l7.57-9.36,1.24.83-6.58,8.53h-2.23ZM102.36,19.27l5.03,7.27,6.83,9.81h-3.5l-5.28-7.64-6.44-9.45h3.36ZM114.6,19.27l-7.48,9.15-1.19-.94,6.38-8.22h2.29ZM111.72,34.35l3.96.72v1.28h-8.77v-1.28l4-.72h.8ZM111.46,21.23l-2.96-.57v-1.38h6.74v1.38l-3,.57h-.78Z"/>
    <path class="cls-1" d="M131.93,25.72c0,.82-.1,1.54-.25,2.01h-13.33v-1.53h8.46c1.73,0,2.13-.82,2.13-1.86,0-2.07-1.69-3.9-3.91-3.9s-4.85,1.93-4.85,7.08c0,4.56,2.3,6.98,5.84,6.98,2.28,0,3.72-1.03,5-2.52l.85.68c-1.31,2.57-3.63,4.18-6.91,4.18-4.85,0-8.01-3.35-8.01-8.84s3.79-9.18,8.27-9.18c3.77,0,6.7,2.56,6.7,6.92Z"/>
    <path class="cls-1" d="M143.69,13.73v-1.47h10.15v1.47l-4.71.54h-.74l-4.7-.54ZM149.12,34.35l4.71.54v1.47h-10.15v-1.47l4.7-.54h.74ZM147.06,23.42c0-3.71,0-7.45-.11-11.16h3.62c-.11,3.64-.11,7.38-.11,11.16v1.08c0,4.4,0,8.14.11,11.85h-3.62c.11-3.64.11-7.38.11-11.16v-1.77ZM148.76,24.86v-1.68h15.04v1.68h-15.04ZM158.73,13.73v-1.47h10.15v1.47l-4.71.54h-.74l-4.71-.54ZM164.17,34.35l4.71.54v1.47h-10.15v-1.47l4.71-.54h.74ZM162.1,23.42c0-3.71,0-7.45-.11-11.16h3.62c-.11,3.64-.11,7.38-.11,11.16v1.77c0,3.71,0,7.45.11,11.16h-3.62c.11-3.64.11-7.38.11-11.85v-1.08Z"/>
    <path class="cls-1" d="M171.39,27.88c0-5.95,4.06-9.08,8.26-9.08s8.26,3.12,8.26,9.08-4.11,8.95-8.26,8.95-8.26-3-8.26-8.95ZM184.51,27.88c0-4.84-1.79-7.45-4.86-7.45s-4.86,2.61-4.86,7.45,1.72,7.31,4.86,7.31,4.86-2.47,4.86-7.31Z"/>
    <path class="cls-1" d="M197.54,34.96c.79,0,1.5-.32,2.42-1l.83.97c-.9,1.19-2.39,1.9-4.24,1.9-2.53,0-4.1-1.3-4.1-4.12,0-.89.04-1.65.04-3.06v-8.47h-2.98v-1.58l4.45-.57-1.47,1.2,1.15-5.86h2.18l-.28,6.31v11.63c0,1.86.79,2.65,2,2.65ZM200.43,19.27v1.91h-6.42v-1.91h6.42Z"/>
    <path class="cls-1" d="M217.47,25.72c0,.82-.1,1.54-.25,2.01h-13.33v-1.53h8.46c1.73,0,2.13-.82,2.13-1.86,0-2.07-1.69-3.9-3.91-3.9s-4.85,1.93-4.85,7.08c0,4.56,2.3,6.98,5.84,6.98,2.28,0,3.72-1.03,5-2.52l.85.68c-1.31,2.57-3.63,4.18-6.91,4.18-4.85,0-8.01-3.35-8.01-8.84s3.79-9.18,8.27-9.18c3.77,0,6.7,2.56,6.7,6.92Z"/>
    <path class="cls-1" d="M225.39,9.75l.51.29-.14,5.11v13.65c0,2.52.04,5.04.11,7.56h-3.26c.07-2.52.11-5.04.11-7.56v-15.79l-2.94-.36v-1.27l5.62-1.62ZM228.69,35.07v1.28h-8.91v-1.28l4.03-.72h.83l4.05.72Z"/>
    <path class="cls-1" d="M231.43,35.44l-.13-3.95h1.96l.96,4.28-1.78-.82v-1.24c1.28.97,2.64,1.47,4.43,1.47,2.73,0,4.02-1.09,4.02-2.73,0-1.52-1.06-2.31-3.33-3.13l-1.67-.61c-2.64-.96-4.36-2.39-4.36-4.85,0-2.63,2.22-5.05,6.27-5.05,1.95,0,3.48.54,5.04,1.47l-.15,3.65h-1.86l-.74-3.68,1.34.59v.96c-1.16-.9-2.36-1.36-3.67-1.36-2.2,0-3.34.96-3.34,2.46,0,1.58.88,2.2,3.33,3.09l1.12.4c3.59,1.31,4.96,3.02,4.96,5.27,0,2.73-2.38,5.16-7.02,5.16-2.04,0-3.61-.47-5.38-1.38Z"/>
  </g>
  <g id="Mc1Nx3.tif">
    <path class="cls-1" d="M41.61,10.35l5.28,8.88-18.54,21.84L9.65,19.21v-.14l5.43-8.72h26.52ZM25.31,12.28h-7.15l2.68,4.29,4.47-4.29ZM38.25,12.28h-7.01l4.4,4.21,2.61-4.21ZM34.17,17.93l-5.9-5.5-5.83,5.5h11.72ZM19.31,17.93l-3.36-5.36-3.22,5.36h6.58ZM43.9,17.93l-3.25-5.29-3.25,5.29h6.51ZM19.84,20h-6.97l12.72,14.72-5.75-14.72ZM34.53,20h-12.37l6.29,15.65,6.08-15.65ZM43.75,20h-6.97l-5.68,14.72,12.65-14.72Z"/>
  </g>
</svg>